# xmcd CD database file
#
# Track frame offsets:
#	182
#	29637
#	65515
#	97060
#	128290
#	145632
#	172600
#	201342
#	231215
#	256002
#	281057
#
# Disc length: 3980 seconds
#
# Revision: 0
# Processed by: cddbd v1.5.1PL0 Copyright (c) Steve Scherf et al.
# Submitted via: CDex 1.51
#
DISCID=940f8a0b
DTITLE=Ham Galper - At Cafe Des Copains
DYEAR=1900
DGENRE=Jazz
TTITLE0=Whisper Not
TTITLE1=Willow Weep For Me
TTITLE2=My Man's Gone Now
TTITLE3=Last Night When We Were Young
TTITLE4=All God's Children Got Rythm
TTITLE5=The Touch Of Your Lips
TTITLE6=Polka Dots And Moonbeams
TTITLE7=Teach Me Tonight
TTITLE8=Golden Earrings
TTITLE9=It Never Was You
TTITLE10=Cotton Tail
EXTD=
EXTT0=
EXTT1=
EXTT2=
EXTT3=
EXTT4=
EXTT5=
EXTT6=
EXTT7=
EXTT8=
EXTT9=
EXTT10=
PLAYORDER=
